#!OML:ASF F:\VICON\USERDATA\INSTALL\rory3\rory3.ASF
:FULLY-SPECIFIED
:DEGREES
989
root 9.61073 17.8715 -5.24063 181.479 49.7084 179.165
lowerback 14.8936 2.07702 -1.89719
upperback 3.84983 2.8601 2.06888
thorax -4.45597 1.55293 2.71129
lowerneck -11.7839 -5.65461 -10.3085
upperneck 39.9912 -3.38765 3.13399
head 16.805 -1.53226 2.95605
rclavicle -8.05078e-014 -1.43125e-014
rhumerus -31.4146 30.1953 -90.7675
rradius 90.4799
rwrist 14.2843
rhand -18.8166 17.2411
rfingers 7.12502
rthumb 7.48214 -12.6065
lclavicle -8.05078e-014 -1.43125e-014
lhumerus -32.5741 -32.4443 102.104
lradius 79.8632
lwrist 8.31211
lhand -27.1316 23.5965
lfingers 7.12502
lthumb -0.547235 53.5755
rfemur -25.1079 -4.63854 24.5288
rtibia 30.2189
rfoot -4.29956 -1.49549
rtoes 4.75498
lfemur -19.5526 11.5893 -17.7881
ltibia 47.4297
lfoot -10.6032 -5.07041
ltoes -10.4979
990
root 9.64718 17.8656 -5.28226 181.682 49.9873 179.12
lowerback 15.0229 2.24521 -1.99613
upperback 3.89107 3.06958 2.08073
thorax -4.50099 1.65838 2.73619
lowerneck -11.9142 -5.72162 -10.592
upperneck 40.0275 -3.46775 3.33479
head 16.8847 -1.58441 3.08348
rclavicle 1.80894e-014 -3.18055e-015
rhumerus -30.7812 30.5567 -90.3601
rradius 90.2014
rwrist 14.9062
rhand -18.9685 17.0975
rfingers 7.12502
rthumb 7.33556 -12.7554
lclavicle 1.80894e-014 -3.18055e-015
lhumerus -32.2829 -32.4412 102.022
lradius 79.7762
lwrist 7.98004
lhand -25.73 24.0864
lfingers 7.12502
lthumb 0.80649 54.0647
rfemur -25.4431 -4.52939 24.4824
rtibia 30.7259
rfoot -4.7077 -1.43192
rtoes 5.16817
lfemur -20.3544 12.0394 -18.0078
ltibia 46.4148
lfoot -11.1935 -4.83632
ltoes -10.298
991
root 9.67894 17.8566 -5.32531 181.873 50.1943 179.065
lowerback 15.1851 2.35229 -2.05801
upperback 3.91634 3.20086 2.05922
thorax -4.57227 1.72494 2.71778
lowerneck -11.9275 -5.7184 -10.7261
upperneck 40.013 -3.47327 3.47079
head 16.8898 -1.59044 3.16722
rclavicle -2.92213e-014 1.19271e-014
rhumerus -30.1398 30.9489 -90.049
rradius 89.9845
rwrist 15.6225
rhand -19.0942 16.8534
rfingers 7.12502
rthumb 7.21423 -13.0037
lclavicle -2.92213e-014 1.19271e-014
lhumerus -32.0048 -32.3858 101.94
lradius 79.673
lwrist 7.87674
lhand -26.2452 24.5802
lfingers 7.12502
lthumb 0.308898 54.5597
rfemur -25.7922 -4.57993 24.4299
rtibia 31.2227
rfoot -5.12807 -1.17984
rtoes 5.67713
lfemur -21.1183 12.3016 -18.243
ltibia 45.3148
lfoot -11.6041 -4.86306
ltoes -9.05039
992
root 9.70353 17.8495 -5.36956 182.018 50.2547 179.02
lowerback 15.4337 2.36379 -1.96709
upperback 3.95431 3.22872 1.99298
thorax -4.65958 1.74027 2.58245
lowerneck -11.8101 -5.6311 -10.3226
upperneck 39.6923 -3.35622 3.04149
head 16.6433 -1.54503 2.90653
rclavicle -3.37934e-014 -3.18055e-014
rhumerus -29.5341 31.3586 -89.7771
rradius 89.7234
rwrist 16.2126
rhand -19.1783 16.978
rfingers 7.12502
rthumb 7.13302 -12.8818
lclavicle -3.37934e-014 -3.18055e-014
lhumerus -31.7842 -32.3941 101.881
lradius 79.5722
lwrist 8.29083
lhand -27.5498 24.9383
lfingers 7.12502
lthumb -0.951066 54.916
rfemur -26.0942 -4.78085 24.3529
rtibia 31.7186
rfoot -5.56449 -0.90221
rtoes 6.51915
lfemur -21.8369 12.3424 -18.4433
ltibia 44.1542
lfoot -11.9429 -5.09453
ltoes -6.37287
993
root 9.72208 17.8439 -5.41936 182.187 50.1636 179.136
lowerback 15.8225 2.28984 -1.67385
upperback 3.99041 3.18304 1.98824
thorax -4.81302 1.72004 2.40693
lowerneck -11.7147 -5.51254 -9.80852
upperneck 39.2956 -3.14799 2.38656
head 16.3508 -1.47762 2.54228
rclavicle -1.05952e-013 3.18055e-015
rhumerus -29.0571 31.8842 -89.4091
rradius 89.4904
rwrist 16.7864
rhand -19.2672 17.0448
rfingers 7.12502
rthumb 7.04722 -12.8179
lclavicle -1.05952e-013 3.18055e-015
lhumerus -31.5506 -32.3109 101.9
lradius 79.3783
lwrist 8.32082
lhand -28.1353 25.0465
lfingers 7.12502
lthumb -1.51657 55.0208
rfemur -26.2793 -5.23899 24.391
rtibia 32.2118
rfoot -6.07033 -0.597044
rtoes 6.48337
lfemur -22.4448 12.1046 -18.4646
ltibia 42.9872
lfoot -12.1865 -5.60216
ltoes -0.905466
